<?xml version="1.0" encoding="utf-8"?>
<!-- Generator: Adobe Illustrator 24.2.1, SVG Export Plug-In . SVG Version: 6.00 Build 0)  -->
<svg version="1.1" id="Calque_1" xmlns="http://www.w3.org/2000/svg" xmlns:xlink="http://www.w3.org/1999/xlink" x="0px" y="0px"
	 viewBox="0 0 24.3 28.4" style="enable-background:new 0 0 24.3 28.4;" xml:space="preserve">
<style type="text/css">
	.st0{fill:#99E2D0;}
</style>
<path class="st0" d="M16.5,0.9c2.6,0,4.5,0.4,5.8,1.2c1.3,0.8,1.9,1.7,1.9,2.8c0,0.9-0.4,1.6-1.2,2.1c-0.7,0.5-1.7,0.7-3,0.7
	c-1.1,0-2-0.3-2.6-0.8s-0.9-1.2-0.9-2.1c0-0.5,0.2-1,0.5-1.6c-0.7,0-1.3,0.2-1.8,0.5s-0.9,0.9-1.1,1.8C14,6,13.9,6.5,13.9,7
	c0,0.6,0.1,1,0.3,1.4c0.2,0.3,0.5,0.5,0.9,0.5h2.1c1.2,0,1.9,0.4,1.9,1.2c0,0.1,0,0.2-0.1,0.4c-0.1,0.5-0.4,0.9-0.9,1.2
	c-0.4,0.3-1.1,0.4-2,0.4H15l-3.6,11.7c-0.1,0.3-0.1,0.5-0.1,0.8s0.1,0.6,0.2,0.8c0.1,0.2,0.3,0.3,0.5,0.5s0.3,0.3,0.4,0.4
	s0.1,0.2,0,0.4c-0.1,0.3-0.4,0.5-0.7,0.7c-0.4,0.1-0.9,0.2-1.7,0.2H1.8c-0.6,0-1.1-0.1-1.4-0.3c-0.3-0.2-0.4-0.5-0.3-0.8
	s0.3-0.5,0.8-0.8c0.4-0.2,0.7-0.4,0.9-0.7c0.2-0.3,0.4-0.7,0.6-1.3l2.8-9.2c0.1-0.4,0.2-0.7,0.2-1.1c0-0.5-0.1-0.9-0.3-1.1
	c-0.2-0.3-0.5-0.6-0.9-0.9c-0.3-0.2-0.5-0.4-0.6-0.5c-0.1-0.2-0.2-0.4-0.2-0.6c0-0.5,0.1-0.8,0.5-1s1-0.3,2-0.3h0.9
	C6.6,8.4,6.5,7.8,6.5,7.2S6.6,6,6.8,5.3C7.3,4.1,8.2,3,9.7,2.2C11.3,1.3,13.5,0.9,16.5,0.9z"/>
</svg>
