<?xml version="1.0" encoding="utf-8"?>
<!-- Generator: Adobe Illustrator 24.2.1, SVG Export Plug-In . SVG Version: 6.00 Build 0)  -->
<svg version="1.1" id="Calque_1" xmlns="http://www.w3.org/2000/svg" xmlns:xlink="http://www.w3.org/1999/xlink" x="0px" y="0px"
	 viewBox="0 0 25.4 28.4" style="enable-background:new 0 0 25.4 28.4;" xml:space="preserve">
<style type="text/css">
	.st0{fill:#99E2D0;}
</style>
<path class="st0" d="M19.9,22.3c0,0.2-0.1,0.3-0.1,0.4c0,0.2,0,0.3,0.1,0.4s0.2,0.1,0.4,0.1c0.3,0,0.5-0.1,0.7-0.4s0.4-0.4,0.4-0.4
	c0.1,0,0.2,0.1,0.3,0.3c0.1,0.2,0.1,0.4,0.1,0.6c0,0.6-0.2,1.3-0.8,2c-0.5,0.7-1.2,1.2-2.1,1.7c-0.9,0.4-1.8,0.6-2.8,0.6
	c-1.2,0-2.2-0.2-3.1-0.7s-1.5-1.1-1.8-1.8C10.6,25.9,9.8,26.6,9,27s-1.7,0.6-2.7,0.6c-1.1,0-2.1-0.3-3.1-0.8
	c-0.9-0.6-1.7-1.3-2.3-2.3S0.1,22.3,0.1,21c0-2.2,0.4-4.2,1.2-6.2c0.8-1.9,2-3.5,3.5-4.7S8,8.3,9.9,8.3c1,0,1.9,0.1,2.6,0.4
	c0.7,0.2,1.4,0.6,2,1.1l1.2-4c0.1-0.2,0.1-0.4,0.1-0.5c0-0.3-0.1-0.5-0.2-0.6c-0.1-0.2-0.3-0.3-0.5-0.5s-0.4-0.4-0.5-0.5
	s-0.1-0.3,0-0.6c0.1-0.6,0.9-1,2.3-1.4s2.8-0.6,4.3-0.6c1.4,0,2.4,0.3,3.1,0.8s1,1.2,1,2.2c0,0.5-0.1,1-0.3,1.5L19.9,22.3z
	 M13.9,12.2c-0.4-0.3-0.8-0.5-1.3-0.5c-0.7,0-1.4,0.5-2.1,1.5s-1.2,2.3-1.6,3.7c-0.4,1.5-0.6,2.8-0.6,4c0,1.3,0.4,2,1.3,2
	c0.3,0,0.6-0.1,0.8-0.4s0.4-0.7,0.6-1.3L13.9,12.2z"/>
</svg>
