<?xml version="1.0" encoding="utf-8"?>
<!-- Generator: Adobe Illustrator 24.2.1, SVG Export Plug-In . SVG Version: 6.00 Build 0)  -->
<svg version="1.1" id="Calque_1" xmlns="http://www.w3.org/2000/svg" xmlns:xlink="http://www.w3.org/1999/xlink" x="0px" y="0px"
	 viewBox="0 0 43.6 57.5" style="enable-background:new 0 0 43.6 57.5;" xml:space="preserve">
<style type="text/css">
	.st0{fill:#99E2D0;}
</style>
<path class="st0" d="M25.6,19.8c6.3,0,10.8,1.3,13.7,3.8c3,2.5,4.4,5.7,4.4,9.9c0,1.3-0.2,2.8-0.6,4.6c-0.9,3.8-2.5,7-4.9,9.9
	c-2.3,2.8-5.3,4.9-8.7,6.5c-3.4,1.5-7.2,2.3-11.2,2.3c-6.3,0-11-1.3-14.1-3.8C1.5,50.2,0,46.8,0,42.6c0-1.3,0.2-3,0.6-4.7
	c0.9-3.6,2.5-6.6,4.9-9.5c2.3-2.7,5.3-4.7,8.9-6.3C17.9,20.6,21.7,19.8,25.6,19.8z M25.5,25.9c-0.9,0-1.9,0.9-3,2.7
	c-1.1,1.7-2.3,4.9-3.8,9.7c-1.5,4.7-2.3,8-2.3,10.1c0,0.9,0.2,1.7,0.6,2.1c0.4,0.4,0.8,0.6,1.3,0.6c0.9,0,1.9-0.8,2.8-2.5
	c1.1-1.7,2.3-5.1,4-10.1c1.3-4.4,2.1-7.6,2.1-9.7c0-0.9-0.2-1.7-0.6-1.9C26.4,26.1,26,25.9,25.5,25.9z"/>
</svg>
