<?xml version="1.0" encoding="utf-8"?>
<!-- Generator: Adobe Illustrator 24.2.1, SVG Export Plug-In . SVG Version: 6.00 Build 0)  -->
<svg version="1.1" id="Calque_1" xmlns="http://www.w3.org/2000/svg" xmlns:xlink="http://www.w3.org/1999/xlink" x="0px" y="0px"
	 viewBox="0 0 55.9 39.7" style="enable-background:new 0 0 55.9 39.7;" xml:space="preserve">
<style type="text/css">
	.st0{fill:#99E2D0;}
</style>
<path class="st0" d="M52,21.3c0,0.1-0.1,0.3-0.1,0.6c0,0.3,0,0.4,0.1,0.6c0.1,0.3,0.4,0.3,0.6,0.3c0.4,0,0.7-0.1,1-0.6
	c0.3-0.4,0.6-0.6,0.6-0.6c0.1,0,0.3,0.1,0.4,0.4c0.1,0.1,0.1,0.4,0.1,0.7c0,1-0.3,2-1,3.1c-0.7,0.9-1.8,1.8-3.1,2.3S47.7,29,45.8,29
	c-2.3,0-4.1-0.6-5.5-1.6c-1.3-1-2-2.5-2-4.4c0-1.3,0.3-2.8,0.9-4.4l2.9-7.6c0.1-0.4,0.3-0.9,0.3-1.2c0-0.4-0.1-0.9-0.4-1
	c-0.3-0.3-0.6-0.4-1-0.4c-0.6,0-1.2,0.3-1.9,0.7c-0.7,0.4-1.2,1.3-1.8,2.5L34.3,21c0,0.1-0.1,0.3-0.1,0.6c0,0.3,0,0.4,0.1,0.6
	c0.1,0.1,0.3,0.1,0.6,0.1c0.4,0,0.7-0.1,1-0.6c0.3-0.4,0.6-0.6,0.6-0.6c0.1,0,0.3,0.1,0.4,0.4c0.1,0.1,0.1,0.4,0.1,0.7
	c0,1-0.3,2-1,3.1c-0.7,0.9-1.8,1.8-3.1,2.3c-1.3,0.6-2.9,0.9-4.8,0.9c-2.3,0-4.1-0.6-5.5-1.6c-1.3-1-2-2.5-2-4.4
	c0-1.3,0.3-2.8,0.9-4.4l2.9-7.6c0.1-0.4,0.3-0.9,0.3-1.2c0-0.4-0.1-0.9-0.4-1C24,8.1,23.7,8,23.2,8c-0.6,0-1.2,0.3-1.9,0.7
	c-0.6,0.4-1.2,1.3-1.6,2.5l-3.5,11.2c-0.1,0.4-0.1,0.7-0.1,1.2c0,0.4,0.1,0.7,0.3,1c0.1,0.3,0.4,0.4,0.7,0.7
	c0.3,0.1,0.4,0.4,0.6,0.6c0.1,0.1,0.1,0.4,0,0.6c-0.1,0.4-0.4,0.7-1,1c-0.6,0.1-1.3,0.3-2.5,0.3h-12c-0.9,0-1.6-0.1-1.9-0.4
	c-0.4-0.3-0.6-0.7-0.4-1.2c0.1-0.4,0.4-0.7,1.2-1.2c0.6-0.3,1-0.6,1.3-1c0.3-0.4,0.6-1,0.9-1.9L7.9,7c0-0.1,0.1-0.4,0.1-0.7
	c0-0.4-0.1-0.7-0.3-0.9C7.6,5.2,7.3,4.9,7,4.6C6.8,4.3,6.5,4,6.3,3.9S6.2,3.5,6.3,3c0.1-0.9,1.3-1.5,3.4-2c1.9,0.1,3.9-0.1,6.1-0.1
	c1.8,0,3.1,0.4,4.1,1.5c1,0.9,1.5,2.2,1.5,3.9c1.5-2,2.9-3.4,4.5-4.1c1.6-1,3.4-1.3,5.3-1.3c2,0,3.6,0.6,5,1.8s2,2.6,2.2,4.5
	c1.5-2.3,3.1-4.1,4.8-5c1.8-0.9,3.6-1.5,5.7-1.5c2.2,0,3.8,0.6,5.1,1.9s2,2.9,2,5.1c0,1-0.1,2.2-0.6,3.2L52,21.3z"/>
</svg>
