<?xml version="1.0" encoding="utf-8"?>
<!-- Generator: Adobe Illustrator 24.2.1, SVG Export Plug-In . SVG Version: 6.00 Build 0)  -->
<svg version="1.1" id="Calque_1" xmlns="http://www.w3.org/2000/svg" xmlns:xlink="http://www.w3.org/1999/xlink" x="0px" y="0px"
	 viewBox="0 0 36.6 39.7" style="enable-background:new 0 0 36.6 39.7;" xml:space="preserve">
<style type="text/css">
	.st0{fill:#99E2D0;}
</style>
<path class="st0" d="M31.7,0.8c1.6,0,2.8,0.6,3.6,1.9c0.9,1.2,1.5,2.9,1.5,5.1c0,1.9-0.3,3.8-1,6c-1.3,4.4-3.4,8.3-6.3,12.3
	c-2.8,3.8-6.1,6.9-9.8,9.2s-7.3,3.5-11.1,3.5c-1.8,0-3.4-0.3-4.7-0.9c-1.3-0.6-2.3-1.5-2.9-2.5c-0.7-1-1-2.2-1-3.4
	c0-0.6,0.1-1.2,0.3-1.8c0.3-1,0.9-1.8,1.6-2.2c0.7-0.6,1.6-0.7,2.6-0.7c1.6,0,2.9,0.6,3.9,1.6c1,1.2,1.8,2.6,2,4.5
	c2.2-0.1,4.4-1,6.1-2.9c-1.8-0.3-3.1-0.9-3.9-1.8c-0.9-0.9-1.5-2.3-1.8-4.2l-2-12.8c-0.1-0.7-0.3-1.2-0.4-1.3C8.3,10.2,8,10,7.7,10
	c-0.3,0-0.6,0.1-0.9,0.4c-0.3,0.3-0.6,0.4-0.7,0.4c-0.3,0-0.4-0.3-0.4-0.9c0-0.4,0.1-1,0.3-1.6c0.6-2,1.8-3.6,3.5-5.1
	c1.8-1.5,3.6-2,6-2c2.2,0,3.9,0.7,5,2c1,1.3,1.8,3.4,2,6.1L24.1,21c0.1,0.9,0.4,1.3,0.9,1.3c0.6,0,1.3-0.6,2.2-1.8
	c0.9-1.2,1.6-2.8,2.5-4.8c-1-0.9-1.9-2-2.5-3.2c-0.6-1.2-0.9-2.5-0.9-3.9c0-1,0.1-2,0.4-2.9c0.4-1.5,1-2.5,1.9-3.2
	C29.6,1.1,30.6,0.8,31.7,0.8z"/>
</svg>
