<?xml version="1.0" encoding="utf-8"?>
<!-- Generator: Adobe Illustrator 24.2.1, SVG Export Plug-In . SVG Version: 6.00 Build 0)  -->
<svg version="1.1" id="Calque_1" xmlns="http://www.w3.org/2000/svg" xmlns:xlink="http://www.w3.org/1999/xlink" x="0px" y="0px"
	 viewBox="0 0 23.9 28.4" style="enable-background:new 0 0 23.9 28.4;" xml:space="preserve">
<style type="text/css">
	.st0{fill:#99E2D0;}
</style>
<path class="st0" d="M13.7,8.5c3.3,0,5.7,0.7,7.2,2c1.6,1.3,2.3,3,2.3,5.2c0,0.7-0.1,1.5-0.3,2.4c-0.5,2-1.3,3.7-2.6,5.2
	c-1.2,1.5-2.8,2.6-4.6,3.4s-3.8,1.2-5.9,1.2c-3.3,0-5.8-0.7-7.4-2S0,22.8,0,20.6c0-0.7,0.1-1.6,0.3-2.5c0.5-1.9,1.3-3.5,2.6-5
	s2.9-2.6,4.7-3.4C9.6,8.9,11.6,8.5,13.7,8.5z M13.6,11.7c-0.5,0-1,0.5-1.6,1.4s-1.2,2.6-2,5.1s-1.2,4.2-1.2,5.3
	c0,0.5,0.1,0.9,0.3,1.1s0.4,0.3,0.7,0.3c0.5,0,1-0.4,1.5-1.3c0.6-0.9,1.2-2.7,2.1-5.3c0.7-2.3,1.1-4,1.1-5.1c0-0.5-0.1-0.9-0.3-1
	C14.1,11.8,13.9,11.7,13.6,11.7z"/>
</svg>
